<?xml version="1.0" encoding="iso-8859-1"?>
<!-- Generator: Adobe Illustrator 22.0.1, SVG Export Plug-In . SVG Version: 6.00 Build 0)  -->
<svg version="1.1" id="Icons" xmlns="http://www.w3.org/2000/svg" xmlns:xlink="http://www.w3.org/1999/xlink" x="0px" y="0px"
	 viewBox="0 0 512 512" style="enable-background:new 0 0 512 512;" xml:space="preserve">
<g>
	<path id="XMLID_58_" style="fill:#29A4FC;" d="M512,255.904c0,70.692-28.654,134.692-74.981,181.019S326.692,511.904,256,511.904
		S121.308,483.25,74.981,436.924S0,326.597,0,255.904S28.654,121.212,74.981,74.885S185.308-0.096,256-0.096
		s134.692,28.654,181.019,74.981S512,185.212,512,255.904z"/>
	<g id="XMLID_15_">
		<g id="XMLID_21_">
			<g id="XMLID_31_">
				<path id="XMLID_107_" style="fill:#E3C155;" d="M341.44,159.124v169.08v169.08c-13.36,4.735-27.23,8.39-41.505,10.861
					s-28.955,3.759-43.935,3.759c-26.84,0-52.717-4.133-77.03-11.796s-47.06-18.859-67.64-32.984c-2.34-1.6-4.65-3.24-6.931-4.919
					s-4.534-3.396-6.759-5.151c-1.095-0.86-2.183-1.73-3.263-2.611s-2.153-1.774-3.218-2.679c-0.66-0.55-1.317-1.107-1.971-1.67
					s-1.304-1.13-1.949-1.7c-2.635-2.31-5.225-4.675-7.766-7.093c-2.541-2.417-5.034-4.887-7.474-7.407
					c-5.675-5.865-11.072-12.003-16.17-18.39c-5.098-6.387-9.895-13.025-14.37-19.89V277.369V159.124
					c0-14.24,5.772-27.132,15.104-36.465s22.221-15.105,36.456-15.105h98.425h98.425c14.24,0,27.133,5.773,36.465,15.105
					S341.44,144.884,341.44,159.124z"/>
				<path id="XMLID_105_" style="fill:#FCDB59;" d="M341.44,159.124v169.08v169.08c-13.36,4.735-27.23,8.39-41.505,10.861
					s-28.955,3.759-43.935,3.759c-26.84,0-52.717-4.133-77.03-11.796s-47.06-18.859-67.64-32.984c-2.34-1.6-4.65-3.24-6.931-4.919
					s-4.534-3.396-6.759-5.151c-1.095-0.86-2.183-1.73-3.263-2.611s-2.153-1.774-3.218-2.679v-146.32v-146.32
					c0-14.24,5.773-27.132,15.104-36.465s22.221-15.105,36.456-15.105h73.575h73.575c14.24,0,27.133,5.773,36.465,15.105
					S341.44,144.884,341.44,159.124z"/>
				<polygon id="XMLID_87_" style="fill:#CFAD52;" points="289.182,89.228 289.182,98.39 289.182,107.551 190.173,107.551 
					91.163,107.551 91.163,98.39 91.163,89.228 190.173,89.228 				"/>
				<polygon id="XMLID_86_" style="fill:#E3C155;" points="289.182,89.228 289.182,98.39 289.182,107.551 211.362,107.551 
					133.542,107.551 133.542,98.39 133.542,89.228 211.362,89.228 				"/>
				<path id="XMLID_85_" style="fill:#E3740D;" d="M341.437,35.849v16.098v16.098c0,5.849-2.371,11.145-6.205,14.978
					c-3.834,3.834-9.129,6.205-14.978,6.205H191.45H62.646c-5.849,0-11.145-2.371-14.978-6.205
					c-3.834-3.834-6.205-9.129-6.205-14.978V51.947V35.849c0-5.849,2.371-11.145,6.205-14.978s9.129-6.205,14.978-6.205H191.45
					h128.804c5.849,0,11.145,2.371,14.978,6.205S341.437,30,341.437,35.849z"/>
				<path id="XMLID_71_" style="fill:#FC840A;" d="M341.437,35.849v16.098v16.098c0,5.849-2.371,11.145-6.205,14.978
					c-3.834,3.834-9.129,6.205-14.978,6.205H216.3H112.346c-5.849,0-11.145-2.371-14.978-6.205
					c-3.834-3.834-6.205-9.129-6.205-14.978V51.947V35.849c0-5.849,2.371-11.145,6.205-14.978c3.834-3.834,9.129-6.205,14.978-6.205
					H216.3h103.954c5.849,0,11.145,2.371,14.978,6.205S341.437,30,341.437,35.849z"/>
				<path id="XMLID_30_" style="fill:#E3740D;" d="M133.945,89.228h-12.223h-12.223V73.245V57.261c0-2.761,1.119-5.261,2.929-7.071
					c1.81-1.81,4.31-2.929,7.071-2.929h2.223h2.223c2.761,0,5.261,1.119,7.071,2.929s2.929,4.31,2.929,7.071v15.984V89.228z"/>
				<path id="XMLID_29_" style="fill:#E3740D;" d="M174.69,89.228h-12.223h-12.223V73.245V57.261c0-2.761,1.119-5.261,2.929-7.071
					c1.81-1.81,4.31-2.929,7.071-2.929h2.223h2.223c2.761,0,5.261,1.119,7.071,2.929c1.81,1.81,2.929,4.31,2.929,7.071v15.984
					V89.228z"/>
				<path id="XMLID_28_" style="fill:#E3740D;" d="M216.249,89.228h-12.223h-12.223V73.245V57.261c0-2.761,1.119-5.261,2.929-7.071
					c1.81-1.81,4.31-2.929,7.071-2.929h2.223h2.223c2.761,0,5.261,1.119,7.071,2.929c1.81,1.81,2.929,4.31,2.929,7.071v15.984
					V89.228z"/>
				<path id="XMLID_27_" style="fill:#E3740D;" d="M256.994,89.228h-12.223h-12.223V73.245V57.261c0-2.761,1.119-5.261,2.929-7.071
					s4.31-2.929,7.071-2.929h2.223h2.223c2.761,0,5.261,1.119,7.071,2.929s2.929,4.31,2.929,7.071v15.984V89.228z"/>
				<path id="XMLID_26_" style="fill:#E3740D;" d="M298.146,89.228h-12.223h-12.223V73.245V57.261c0-2.761,1.119-5.261,2.929-7.071
					c1.81-1.81,4.31-2.929,7.071-2.929h2.223h2.223c2.761,0,5.261,1.119,7.071,2.929s2.929,4.31,2.929,7.071v15.984V89.228z"/>
			</g>
			<path id="XMLID_25_" style="fill:#FFFFFF;" d="M341.437,419.837H233.83H126.222c-3.502,0-6.672-1.419-8.966-3.714
				c-2.295-2.295-3.714-5.465-3.714-8.966V311.67v-95.486c0-3.502,1.419-6.672,3.714-8.966s5.465-3.714,8.966-3.714H233.83h107.608
				V311.67V419.837z"/>
			<path id="XMLID_22_" style="fill:#E6D4A9;" d="M142.052,407.157V311.67v-95.487c0-3.502,1.419-6.672,3.714-8.966
				s5.465-3.714,8.966-3.714h-14.255h-14.255c-3.502,0-6.672,1.419-8.966,3.714s-3.714,5.465-3.714,8.966v95.487v95.487
				c0,3.502,1.419,6.672,3.714,8.966c2.295,2.295,5.465,3.714,8.966,3.714h14.255h14.255c-3.502,0-6.672-1.419-8.966-3.714
				C143.471,413.829,142.052,410.658,142.052,407.157z"/>
			<g id="XMLID_23_">
				<path id="XMLID_24_" style="fill:#E6D4A9;" d="M458.036,80.88l-22.744,22.744l-22.744,22.744
					c-5.551,5.551-12.655,8.597-19.912,9.139c-7.257,0.543-14.665-1.418-20.824-5.88c-0.668-0.484-1.321-0.999-1.956-1.542
					c-0.635-0.544-1.254-1.116-1.855-1.717l-1.768-1.768l-1.768-1.768c-6.152-6.152-9.228-14.213-9.228-22.274
					s3.076-16.122,9.228-22.274l22.744-22.744l22.744-22.744c6.152-6.152,14.213-9.228,22.274-9.228
					c8.061,0,16.122,3.076,22.274,9.228l1.768,1.768l1.768,1.768c0.601,0.601,1.174,1.22,1.717,1.855s1.058,1.288,1.542,1.956
					c4.462,6.159,6.422,13.568,5.88,20.824C466.633,68.224,463.587,75.329,458.036,80.88z"/>
				<path id="XMLID_526_" style="fill:#FFFFFF;" d="M458.036,80.88l-22.744,22.744l-22.744,22.744
					c-5.551,5.551-12.655,8.597-19.912,9.139c-7.257,0.543-14.665-1.418-20.824-5.88c-4.462-6.159-6.422-13.568-5.88-20.824
					c0.543-7.257,3.589-14.361,9.139-19.912l22.744-22.744l22.744-22.744c5.551-5.551,12.655-8.597,19.912-9.139
					c7.257-0.543,14.665,1.418,20.824,5.88c4.462,6.159,6.422,13.568,5.88,20.824C466.633,68.224,463.587,75.329,458.036,80.88z"/>
				<path id="XMLID_1042_" style="fill:#E6D4A9;" d="M420.795,101.857l-15.203-15.203L390.39,71.451
					c-1.204-1.204-1.806-2.782-1.806-4.36s0.602-3.156,1.806-4.36v0v0c1.204-1.204,2.782-1.806,4.36-1.806s3.156,0.602,4.361,1.806
					l15.203,15.203l15.203,15.203c1.204,1.204,1.806,2.782,1.806,4.36s-0.602,3.156-1.806,4.36h0v0
					c-1.204,1.204-2.782,1.806-4.36,1.806S421.999,103.061,420.795,101.857z"/>
			</g>
			<g id="XMLID_1043_">
				<path id="XMLID_1342_" style="fill:#E6D4A9;" d="M407.245,281.731l22.744,22.744l22.744,22.744
					c5.551,5.551,8.597,12.655,9.139,19.912c0.543,7.257-1.418,14.665-5.88,20.824c-0.484,0.668-0.999,1.321-1.542,1.956
					s-1.116,1.254-1.717,1.855l-1.768,1.768l-1.768,1.768c-6.152,6.152-14.213,9.228-22.274,9.228
					c-8.061,0-16.122-3.076-22.274-9.228l-22.744-22.744l-22.744-22.744c-6.152-6.152-9.228-14.213-9.228-22.274
					c0-8.061,3.076-16.122,9.228-22.274l1.768-1.768l1.768-1.768c0.601-0.601,1.22-1.174,1.855-1.717
					c0.636-0.544,1.288-1.058,1.956-1.542c6.159-4.462,13.568-6.422,20.824-5.88C394.589,273.135,401.694,276.181,407.245,281.731z"
					/>
				<path id="XMLID_1343_" style="fill:#FFFFFF;" d="M407.245,281.731l22.744,22.744l22.744,22.744
					c5.551,5.551,8.597,12.655,9.139,19.912c0.543,7.257-1.418,14.665-5.88,20.824c-6.159,4.462-13.568,6.422-20.824,5.88
					c-7.257-0.543-14.361-3.589-19.912-9.139l-22.744-22.744l-22.744-22.744c-5.551-5.551-8.597-12.655-9.139-19.912
					c-0.543-7.257,1.418-14.665,5.88-20.824c6.159-4.462,13.568-6.422,20.824-5.88C394.589,273.135,401.694,276.181,407.245,281.731
					z"/>
				<path id="XMLID_1432_" style="fill:#E6D4A9;" d="M428.222,318.972l-15.203,15.203l-15.203,15.203
					c-1.204,1.204-2.782,1.806-4.361,1.806s-3.156-0.602-4.36-1.806h0l0,0c-1.204-1.204-1.806-2.782-1.806-4.36
					s0.602-3.156,1.806-4.361l15.203-15.203l15.203-15.203c1.204-1.204,2.782-1.806,4.361-1.806s3.156,0.602,4.36,1.806v0l0,0
					c1.204,1.204,1.806,2.782,1.806,4.36S429.426,317.768,428.222,318.972z"/>
			</g>
			<g id="XMLID_1433_">
				<path id="XMLID_1434_" style="fill:#E6D4A9;" d="M492.057,457.693c0,11.6-4.168,22.225-11.086,30.46
					c-6.919,8.235-16.589,14.08-27.594,16.12c-1.41,0.265-2.843,0.465-4.294,0.599s-2.921,0.201-4.406,0.201
					c-13.085,0-24.93-5.303-33.504-13.876c-8.574-8.574-13.876-20.419-13.876-33.504c0-13.085,5.302-24.93,13.876-33.504
					c8.574-8.574,20.419-13.876,33.504-13.876c1.485,0,2.955,0.068,4.406,0.201c1.451,0.134,2.884,0.334,4.294,0.599
					c11.005,2.04,20.675,7.885,27.594,16.12C487.889,435.468,492.057,446.093,492.057,457.693z"/>
				<path id="XMLID_1435_" style="fill:#FFFFFF;" d="M492.057,457.693c0,11.6-4.168,22.225-11.086,30.46
					c-6.919,8.235-16.589,14.08-27.594,16.12c-11.005-2.045-20.675-7.89-27.594-16.124c-6.919-8.234-11.086-18.856-11.086-30.456
					s4.167-22.223,11.086-30.456c6.919-8.234,16.589-14.079,27.594-16.124c11.005,2.04,20.675,7.885,27.594,16.12
					C487.889,435.468,492.057,446.093,492.057,457.693z"/>
				<path id="XMLID_1436_" style="fill:#E6D4A9;" d="M406.297,459.859L406.297,459.859L406.297,459.859
					c0-2.123,0.861-4.045,2.252-5.437c1.391-1.391,3.314-2.252,5.437-2.252h32.978h32.978c2.123,0,4.045,0.861,5.437,2.252
					s2.252,3.314,2.252,5.437l0,0l0,0c0,2.123-0.861,4.045-2.252,5.437s-3.314,2.252-5.437,2.252h-32.978h-32.978
					c-2.123,0-4.045-0.861-5.437-2.252C407.157,463.905,406.297,461.982,406.297,459.859z"/>
			</g>
			<g id="XMLID_1437_">
				<path id="XMLID_1438_" style="fill:#E6D4A9;" d="M500.707,201.884c0,11.6-4.168,22.225-11.086,30.46
					c-6.919,8.235-16.589,14.08-27.594,16.12c-1.41,0.265-2.843,0.465-4.294,0.599c-1.451,0.134-2.921,0.201-4.406,0.201
					c-13.085,0-24.93-5.303-33.504-13.876c-8.574-8.574-13.876-20.419-13.876-33.504c0-13.085,5.302-24.93,13.876-33.504
					s20.419-13.876,33.504-13.876c1.485,0,2.955,0.068,4.406,0.201c1.451,0.134,2.884,0.334,4.294,0.599
					c11.005,2.04,20.675,7.885,27.594,16.12C496.54,179.659,500.707,190.284,500.707,201.884z"/>
				<path id="XMLID_1468_" style="fill:#FFFFFF;" d="M500.707,201.884c0,11.6-4.168,22.225-11.086,30.46
					c-6.919,8.235-16.589,14.08-27.594,16.12c-11.005-2.045-20.675-7.89-27.594-16.124c-6.919-8.234-11.086-18.856-11.086-30.456
					s4.167-22.223,11.086-30.456c6.919-8.234,16.589-14.079,27.594-16.124c11.005,2.04,20.675,7.885,27.594,16.12
					C496.54,179.659,500.707,190.284,500.707,201.884z"/>
				<path id="XMLID_1469_" style="fill:#E6D4A9;" d="M414.947,204.05L414.947,204.05L414.947,204.05
					c0-2.123,0.861-4.045,2.252-5.437c1.391-1.391,3.314-2.252,5.437-2.252h32.978h32.978c2.123,0,4.045,0.861,5.437,2.252
					c1.391,1.391,2.252,3.314,2.252,5.437v0l0,0c0,2.123-0.861,4.045-2.252,5.437c-1.391,1.391-3.314,2.252-5.437,2.252h-32.978
					h-32.978c-2.123,0-4.045-0.861-5.437-2.252C415.808,208.096,414.947,206.174,414.947,204.05z"/>
			</g>
		</g>
		<g id="XMLID_1470_">
			<path id="XMLID_2503_" style="fill:#BB2133;" d="M200.04,320.483c-6.888-6.888-10.332-15.916-10.332-24.943
				c0-9.028,3.444-18.055,10.332-24.943l0,0l0,0c1.923-1.923,4.013-3.577,6.223-4.963c2.21-1.386,4.541-2.503,6.945-3.352
				c-6.206-2.193-12.904-2.596-19.291-1.211s-12.463,4.56-17.428,9.525l0,0l0,0c-6.888,6.888-10.332,15.916-10.332,24.943
				c0,9.028,3.444,18.056,10.332,24.943l5.557,5.557l5.557,5.557l19.873,19.873l19.873,19.873c2.8,2.8,6.471,4.201,10.141,4.201
				s7.341-1.4,10.141-4.201l0.817-0.817l0.817-0.817l-19.056-19.056l-19.056-19.056l-5.557-5.557L200.04,320.483z"/>
			<path id="XMLID_2502_" style="fill:#E92433;" d="M298.49,270.596L298.49,270.596L298.49,270.596
				c-1.923-1.923-4.013-3.577-6.223-4.963c-2.21-1.386-4.541-2.503-6.945-3.352c-6.071-2.145-12.61-2.575-18.869-1.294
				s-12.238,4.275-17.188,8.979c-0.11,0.105-0.222,0.208-0.332,0.312c-0.111,0.104-0.221,0.209-0.329,0.317l-5.557,5.557
				l-5.557,5.557l-5.557-5.557l-5.557-5.557c-1.923-1.923-4.013-3.577-6.223-4.963c-2.21-1.386-4.541-2.503-6.945-3.352
				c-2.404,0.849-4.734,1.966-6.945,3.352c-2.21,1.386-4.3,3.04-6.223,4.963l0,0l0,0c-6.888,6.888-10.332,15.916-10.332,24.943
				c0,9.028,3.444,18.056,10.332,24.943l5.557,5.557l5.557,5.557l19.056,19.056l19.056,19.056l19.056-19.056l19.056-19.056
				l5.557-5.557l5.557-5.557c6.888-6.888,10.332-15.916,10.332-24.943C308.822,286.512,305.378,277.484,298.49,270.596z"/>
		</g>
	</g>
</g>
</svg>
